<?xml version="1.0" encoding="iso-8859-1"?>
<!-- Generator: Adobe Illustrator 17.1.0, SVG Export Plug-In . SVG Version: 6.00 Build 0)  -->
<!DOCTYPE svg PUBLIC "-//W3C//DTD SVG 1.1//EN" "http://www.w3.org/Graphics/SVG/1.1/DTD/svg11.dtd">
<svg version="1.1" id="Layer_1" xmlns="http://www.w3.org/2000/svg" xmlns:xlink="http://www.w3.org/1999/xlink" x="0px" y="0px"
	 viewBox="0 0 800 800" style="enable-background:new 0 0 800 800;" xml:space="preserve">
<path d="M357.681,356.423c98.561,0,178.462-79.9,178.462-178.462S456.243-0.5,357.681-0.5S179.22,79.4,179.22,177.962
	S259.12,356.423,357.681,356.423z M443.033,249.384c-8.118,26.843-42.895,47.021-84.574,47.021
	c-41.68,0-76.456-20.178-84.574-47.021H443.033z M741.765,761.102l-68.123-68.108c21.57-23.982,34.808-55.607,34.808-90.401
	c0-74.771-60.614-135.385-135.385-135.385s-135.385,60.614-135.385,135.385s60.614,135.385,135.385,135.385
	c22.052,0,42.808-5.385,61.206-14.738l72.688,72.671c4.787,4.786,12.619,4.785,17.405-0.001l17.402-17.402
	C746.553,773.721,746.553,765.888,741.765,761.102z M573.066,688.747c-47.581,0-86.154-38.573-86.154-86.154
	s38.573-86.154,86.154-86.154s86.154,38.573,86.154,86.154S620.647,688.747,573.066,688.747z M406.912,602.589
	c0,21.279,4.167,41.563,11.487,60.279c-18.902,0.802-39.114,1.248-60.718,1.248c-172.074,0-256.282-28.117-287.154-41.854
	c-7.966-3.544-14.385-13.678-14.385-22.396v-58.827c0-88.152,67.117-161.282,152.759-171.077c2.602-0.298,6.461,0.816,8.582,2.352
	c39.487,28.587,87.831,45.648,140.197,45.648s100.71-17.061,140.197-45.648c2.121-1.536,5.98-2.65,8.582-2.352
	c51.965,5.944,96.994,35.288,124.464,77.074c-18.049-6.738-37.489-10.6-57.858-10.6
	C481.449,436.435,406.912,510.966,406.912,602.589z" style="fill: #BBBBBB;"/>
</svg>
